<?xml version="1.0" encoding="UTF-8"?>
<svg width="1911px" height="502px" viewBox="0 0 1911 502" version="1.1" xmlns="http://www.w3.org/2000/svg" xmlns:xlink="http://www.w3.org/1999/xlink">
    <!-- Generator: Sketch 64 (93537) - https://sketch.com -->
    <title>Group 75 Copy 2</title>
    <desc>Created with Sketch.</desc>
    <g id="Page-1" stroke="none" stroke-width="1" fill="none" fill-rule="evenodd">
        <g id="Group-75-Copy-2">
            <g id="Group-129">
                <polygon id="Shape" fill="#FF80C7" fill-rule="nonzero" transform="translate(135.198291, 91.386423) rotate(-540.000000) translate(-135.198291, -91.386423) " points="195.962028 44.3111526 206.348307 62.300549 74.4345548 138.461694 64.0482759 120.472298"></polygon>
                <polygon id="Shape" fill="#8711FF" fill-rule="nonzero" transform="translate(40.679310, 250.998866) rotate(-540.000000) translate(-40.679310, -250.998866) " points="51.0655172 174.838249 51.0655172 327.159482 30.2931034 327.159482 30.2931034 174.838249"></polygon>
                <polygon id="Shape" fill="#348EFF" fill-rule="nonzero" transform="translate(127.408887, 406.439727) rotate(-540.000000) translate(-127.408887, -406.439727) " points="66.6447449 359.364979 198.559153 435.524989 188.173029 453.514475 56.2586207 377.354465"></polygon>
                <polygon id="Shape" fill="#FF4545" fill-rule="nonzero" transform="translate(312.629326, 90.732107) rotate(-540.000000) translate(-312.629326, -90.732107) " points="251.865589 43.6568362 383.779341 119.817981 373.393062 137.807378 241.47931 61.6462327"></polygon>
                <path d="M386.592787,110.92714 C405.635431,99.9328649 429.985165,106.457356 440.97944,125.5 C451.973716,144.542644 445.449224,168.892377 426.406581,179.886653 C423.345999,181.65368 420.148327,182.968168 416.891045,183.850877 L416.890805,327.159482 L396.118391,327.159482 L396.117938,183.843305 C389.512749,182.05932 383.36392,178.583174 378.377736,173.604115 L300.146212,218.769537 C300.911416,221.613457 301.515395,224.523829 301.947698,227.490326 L302.017048,227.998014 L302.077115,228.026068 C305.531527,229.667576 307.936111,233.159903 308.009281,237.221463 L308.010998,237.41226 C308.010998,243.084669 303.463696,247.694998 297.815589,247.79675 L297.624792,247.798467 L292.348946,247.798467 C286.774549,247.798467 282.212689,243.403144 281.972637,237.867245 L281.964172,237.584791 C281.470828,207.890008 257.472825,183.972253 227.840538,183.496867 L226.940883,183.489655 C221.20474,183.489655 216.554677,178.839592 216.554677,173.103448 C216.554677,167.367305 221.20474,162.717241 226.940883,162.717241 C254.516439,162.717241 278.687996,177.454179 291.952922,199.513906 L368.004154,155.606119 C363.500342,138.648894 370.670882,120.119656 386.592787,110.92714 Z M422.990002,135.886207 C417.731871,126.778856 406.086346,123.658447 396.978994,128.916578 C387.871643,134.17471 384.751234,145.820235 390.009366,154.927586 C395.267498,164.034937 406.913022,167.155346 416.020374,161.897215 C425.127725,156.639083 428.248134,144.993558 422.990002,135.886207 Z" id="Combined-Shape" fill="#FFBF00" fill-rule="nonzero"></path>
                <path d="M297.624792,227.025738 C324.640279,227.025738 346.540658,248.926118 346.540658,275.941605 C346.540658,286.33295 343.300475,295.96751 337.775332,303.890061 L379.063716,327.727297 C391.523445,315.874616 410.757143,313.07814 426.406581,322.113347 C445.449224,333.107623 451.973716,357.457356 440.97944,376.5 C429.985165,395.542644 405.635431,402.067135 386.592787,391.07286 C383.103711,389.05844 380.034883,386.595662 377.417063,383.79932 L256.193021,453.787817 L245.806897,435.798331 L367.680187,365.436117 C366.200254,358.946438 366.335345,352.076564 368.259654,345.476596 L321.645126,318.563533 C314.550014,322.57071 306.354454,324.857471 297.624792,324.857471 C291.888648,324.857471 287.238585,320.207408 287.238585,314.471264 C287.238585,308.798856 291.785887,304.188526 297.433994,304.086775 L297.624792,304.085057 C313.167991,304.085057 325.768244,291.484804 325.768244,275.941605 C325.768244,260.553837 313.418736,248.050451 298.090195,247.801922 L297.624792,247.798152 L292.348946,247.798152 C286.612802,247.798152 281.962739,243.148089 281.962739,237.411945 C281.962739,231.739536 286.510041,227.129207 292.158148,227.027455 L292.348946,227.025738 L297.624792,227.025738 Z M390.009366,347.072414 C384.751234,356.179765 387.871643,367.82529 396.978994,373.083422 C406.086346,378.341553 417.731871,375.221144 422.990002,366.113793 C428.248134,357.006442 425.127725,345.360917 416.020374,340.102785 C406.913022,334.844654 395.267498,337.965063 390.009366,347.072414 Z" id="Combined-Shape" fill="#00DE64" fill-rule="nonzero"></path>
                <path d="M223.607064,422.372414 C201.618513,422.372414 183.793271,440.197656 183.793271,462.186207 C183.793271,484.174758 201.618513,502 223.607064,502 C245.595615,502 263.420857,484.174758 263.420857,462.186207 C263.420857,440.197656 245.595615,422.372414 223.607064,422.372414 Z M223.607064,443.144828 C234.123327,443.144828 242.648443,451.669943 242.648443,462.186207 C242.648443,472.70247 234.123327,481.227586 223.607064,481.227586 C213.090801,481.227586 204.565685,472.70247 204.565685,462.186207 C204.565685,451.669943 213.090801,443.144828 223.607064,443.144828 Z" id="Oval" fill="#348EFF" fill-rule="nonzero" transform="translate(223.607064, 462.186207) rotate(-360.000000) translate(-223.607064, -462.186207) "></path>
                <path d="M223.607064,0 C201.618513,0 183.793271,17.8252423 183.793271,39.8137931 C183.793271,61.8023439 201.618513,79.6275862 223.607064,79.6275862 C245.595615,79.6275862 263.420857,61.8023439 263.420857,39.8137931 C263.420857,17.8252423 245.595615,0 223.607064,0 Z M223.607064,20.7724138 C234.123327,20.7724138 242.648443,29.2975297 242.648443,39.8137931 C242.648443,50.3300565 234.123327,58.8551724 223.607064,58.8551724 C213.090801,58.8551724 204.565685,50.3300565 204.565685,39.8137931 C204.565685,29.2975297 213.090801,20.7724138 223.607064,20.7724138 Z" id="Oval-Copy-38" fill="#FF4545" fill-rule="nonzero" transform="translate(223.607064, 39.813793) rotate(-360.000000) translate(-223.607064, -39.813793) "></path>
                <path d="M20.8075473,322.113347 C1.76490372,333.107623 -4.75958781,357.457356 6.23468757,376.5 C17.228963,395.542644 41.5786968,402.067135 60.6213404,391.07286 C79.6639839,380.078584 86.1884755,355.72885 75.1942001,336.686207 C64.1999247,317.643563 39.8501908,311.119072 20.8075473,322.113347 Z M57.204762,347.072414 C62.4628937,356.179765 59.3424847,367.82529 50.2351335,373.083422 C41.1277822,378.341553 29.4822573,375.221144 24.2241256,366.113793 C18.9659939,357.006442 22.0864029,345.360917 31.1937542,340.102785 C40.3011054,334.844654 51.9466303,337.965063 57.204762,347.072414 Z" id="Oval" fill="#8711FF" fill-rule="nonzero" transform="translate(40.714444, 356.593103) rotate(-360.000000) translate(-40.714444, -356.593103) "></path>
                <path d="M6.23468757,125.5 C-4.75958781,144.542644 1.76490372,168.892377 20.8075473,179.886653 C39.8501908,190.880928 64.1999247,184.356437 75.1942001,165.313793 C86.1884755,146.27115 79.6639839,121.921416 60.6213404,110.92714 C41.7691233,100.042808 17.7154269,106.328618 6.56850381,124.932481 L6.23468757,125.5 Z M50.2351335,128.916578 C59.3424847,134.17471 62.4628937,145.820235 57.204762,154.927586 C51.9466303,164.034937 40.3011054,167.155346 31.1937542,161.897215 C22.0864029,156.639083 18.9659939,144.993558 24.2241256,135.886207 C29.4822573,126.778856 41.1277822,123.658447 50.2351335,128.916578 Z" id="Oval" fill="#FF80C7" fill-rule="nonzero" transform="translate(40.714444, 145.406897) rotate(-360.000000) translate(-40.714444, -145.406897) "></path>
                <polygon id="Path" fill="#348EFF" fill-rule="nonzero" transform="translate(223.895570, 374.632883) rotate(-360.000000) translate(-223.895570, -374.632883) " points="234.281777 311.503577 234.281777 437.762189 213.509363 437.762189 213.509363 311.503577"></polygon>
                <polygon id="Path-Copy-12" fill="#FF4545" fill-rule="nonzero" transform="translate(224.168966, 125.500000) rotate(-360.000000) translate(-224.168966, -125.500000) " points="234.555172 76.1655172 234.555172 174.834483 213.782759 174.834483 213.782759 76.1655172"></polygon>
                <path d="" id="Path" stroke="#FF4545" stroke-width="36" stroke-linecap="square" transform="translate(0.288506, 10.386207) rotate(-360.000000) translate(-0.288506, -10.386207) "></path>
                <polygon id="Rectangle" fill="#8711FF" transform="translate(98.668966, 323.049132) rotate(-660.000000) translate(-98.668966, -323.049132) " points="88.2827586 290.736488 109.055172 290.736488 109.055172 355.361776 88.2827586 355.361776"></polygon>
                <polygon id="Path" fill="#FF80C7" fill-rule="nonzero" transform="translate(108.696832, 183.624460) rotate(-360.000000) translate(-108.696832, -183.624460) " points="54.6941754 164.438971 65.0803823 146.449533 162.699488 202.80995 152.313281 220.799388"></polygon>
                <g id="Group-130" transform="translate(204.550575, 243.787356) rotate(-360.000000) translate(-204.550575, -243.787356) translate(100.688506, 162.717241)" fill-rule="nonzero">
                    <path d="M63.2691226,47.676989 C69.0052663,47.676989 73.6553295,52.3270522 73.6553295,58.0631959 C73.6553295,63.7356046 69.1080269,68.3459339 63.4599202,68.4476854 L63.2691226,68.4494027 L57.2316205,68.4494027 C37.0957566,68.4494027 20.7724138,84.7727456 20.7724138,104.908609 C20.7724138,124.843115 36.7709221,141.040968 56.6287008,141.362932 L57.2316205,141.367816 C62.9677641,141.367816 67.6178274,146.017879 67.6178274,151.754023 C67.6178274,157.490167 62.9677641,162.14023 57.2316205,162.14023 C25.6234693,162.14023 0,136.516761 0,104.908609 C0,73.6165397 25.1135622,48.1900568 56.285191,47.6846564 L57.2316205,47.676989 L63.2691226,47.676989 Z" id="Shape" fill="#8711FF"></path>
                    <path d="M196.936286,141.367816 C202.672429,141.367816 207.322493,146.017879 207.322493,151.754023 C207.322493,157.426432 202.77519,162.036761 197.127083,162.138513 L196.936286,162.14023 L57.2316205,162.14023 C51.4954768,162.14023 46.8454136,157.490167 46.8454136,151.754023 C46.8454136,146.081614 51.3927161,141.471285 57.0408228,141.369533 L57.2316205,141.367816 L196.936286,141.367816 Z" id="Shape" fill="#348EFF"></path>
                    <path d="M126.252378,-5.24788897e-13 C146.061206,-5.24788897e-13 164.694446,7.64462987 178.707988,21.0806329 C182.848477,25.0504807 182.98681,31.625208 179.016962,35.7656975 C175.096737,39.8544309 168.636348,40.0404358 164.488297,36.2216155 L164.331898,36.0746717 C154.148139,26.3106156 140.649167,20.7724138 126.252378,20.7724138 C101.686,20.7724138 80.3134716,37.0137737 73.4707204,60.1700356 L73.2678234,60.8738475 C71.7155911,66.3959774 65.9806874,69.6142154 60.4585574,68.0619831 C54.9364275,66.5097508 51.7181895,60.7748471 53.2704218,55.2527172 C62.3873276,22.8189512 92.0703656,-5.24788897e-13 126.252378,-5.24788897e-13 Z" id="Shape" fill="#FF4545"></path>
                    <path d="M84.6372304,24.2756833 C88.8426882,28.0717412 89.2223943,34.5250358 85.5282222,38.7860582 L85.3877806,38.9448094 C79.7535669,45.1866658 75.6095818,52.6297945 73.3087989,60.7288458 C73.1082244,61.4910566 72.8220893,62.2185151 72.462174,62.9010296 C71.8217749,64.1210296 70.9559289,65.177118 69.9331614,66.0309872 L69.67092,66.2424193 C69.5979601,66.2998278 69.5239168,66.3561068 69.4491583,66.4113688 C68.3993624,67.1898748 67.1978276,67.7749068 65.8970136,68.1140731 L65.4649823,68.2168373 C64.6790687,68.3875376 63.8672264,68.4679269 63.0447178,68.4495758 L57.2316205,68.4494027 C49.9616274,68.4494027 43.0341191,70.5709006 37.1194455,74.4923648 L36.7857388,74.7162547 C32.0399101,77.9381258 25.5808131,76.702714 22.358942,71.9568852 C19.1370709,67.2110564 20.3724827,60.7519595 25.1183115,57.5300884 C34.1430237,51.4033483 44.740284,47.9606925 55.834884,47.6937779 C59.1610736,39.3672216 63.9492443,31.6942197 69.9681042,25.0262335 C73.8116128,20.7682075 80.3792043,20.4321747 84.6372304,24.2756833 Z" id="Shape" fill="#FF80C7"></path>
                </g>
            </g>
            <path d="M1254.53867,108 C1339.99601,108 1401.31926,171.609636 1401.31926,250.233904 L1401.31926,251.023498 C1401.31926,329.647766 1339.20505,394.046995 1253.74771,394.046995 C1168.29037,394.046995 1106.96712,330.437359 1106.96712,251.814464 L1106.96712,251.023498 C1106.96712,172.400603 1169.08133,108 1254.53867,108 Z M712.765067,108.922794 C753.028833,108.922794 787.371335,121.553541 815.398464,144.053517 L783.818852,189.841689 C759.344206,172.868866 735.265043,162.605526 711.975474,162.605526 C688.685904,162.605526 676.449268,173.262976 676.449268,186.683316 L676.449268,187.472909 C676.449268,205.630809 688.290421,211.550699 736.054636,223.787335 C792.108895,238.392751 823.688507,258.523947 823.688507,306.679526 L823.688507,307.46912 C823.688507,362.336928 781.845555,393.124201 722.238813,393.124201 C680.395861,393.124201 638.158799,378.520158 605,348.915215 L640.921689,305.889933 C665.790445,326.416612 691.844278,339.442842 723.422517,339.442842 C748.291273,339.442842 763.292172,329.573612 763.292172,313.390383 L763.292172,312.600789 C763.292172,297.207153 753.818426,289.312593 707.633397,277.470067 C651.974622,263.260134 616.052933,247.866498 616.052933,192.998689 L616.052933,192.209096 C616.052933,142.08022 656.316699,108.922794 712.765067,108.922794 Z M1910.66874,112.613971 L1910.66874,293.562665 C1910.66874,360.727531 1871.20555,393.124201 1812.80036,393.124201 C1769.78607,393.124201 1741.37307,374.16023 1722.43107,351.641029 L1760.71055,308.971407 C1776.49555,326.354818 1791.88507,336.62777 1811.22255,336.62777 C1834.11114,336.62777 1848.31696,322.799589 1848.31696,290.797029 L1848.31696,174.435694 L1757.4945,174.437067 L1757.4945,112.613971 L1910.66874,112.613971 Z M1082.05305,112.613971 L1082.05305,168.768474 L998.01423,168.768474 L998.01423,389.434397 L937.253995,389.434397 L937.253995,168.768474 L853.215177,168.768474 L853.215177,112.613971 L1082.05305,112.613971 Z M1579.39933,112.613971 C1644.57854,112.613971 1683.68469,147.018268 1683.68469,203.963737 L1683.68469,204.754703 C1683.68469,249.441565 1659.58905,277.519502 1624.43224,290.569077 L1691.98023,389.434397 L1620.87701,389.434397 L1561.62318,300.851641 L1513.82601,300.851641 L1513.82601,389.434397 L1452.993,389.434397 L1452.993,112.613971 L1579.39933,112.613971 Z M1253.74771,164.28633 C1204.67208,164.28633 1170.6358,202.92422 1170.6358,250.235278 L1170.6358,251.023498 C1170.6358,298.334555 1205.46305,337.760665 1254.53867,337.760665 C1303.6143,337.760665 1337.65058,299.122775 1337.65058,251.811718 L1337.65058,251.023498 C1337.65058,203.71244 1302.82333,164.28633 1253.74771,164.28633 Z M1574.17703,167.977507 L1513.8933,167.977507 L1513.8933,247.332321 L1575.35936,247.332321 C1604.91075,247.332321 1621.85336,231.540455 1621.85336,208.248139 L1621.85336,207.458545 C1621.85336,181.400593 1603.72842,167.977507 1574.17703,167.977507 Z" id="Clip-45" fill="#000000"></path>
        </g>
    </g>
</svg>